<?xml version="1.0" encoding="utf-8"?>
<svg version="1.1" x="0px" y="0px" viewBox="0 0 100 100" enable-background="new 0 0 90 90" xmlns="http://www.w3.org/2000/svg">
  <rect x="73.257" y="25.131" width="7.755" height="27.042" style="fill: rgb(255, 255, 255);"/>
  <rect x="19.295" y="57.903" width="27.043" height="7.755" style="fill: rgb(255, 255, 255);"/>
  <path d="M 58.518 24.466 L 54.218 24.466 L 54.218 19.424 C 55.489 18.844 56.531 17.876 57.226 16.671 L 67.56 16.671 C 69.395 16.671 70.884 15.185 70.884 13.348 C 70.884 11.511 69.395 10.025 67.56 10.025 L 57.226 10.025 C 56.071 8.02 53.929 6.656 51.45 6.656 C 48.971 6.656 46.829 8.02 45.674 10.025 L 35.338 10.025 C 33.5 10.025 32.014 11.511 32.014 13.348 C 32.014 15.185 33.5 16.671 35.338 16.671 L 45.674 16.671 C 46.369 17.876 47.409 18.844 48.682 19.424 L 48.682 24.466 L 44.381 24.466 L 44.381 28.588 L 42.324 28.588 C 31.534 28.588 22.754 37.365 22.754 48.158 L 22.754 54.864 L 42.882 54.864 L 42.882 54.12 C 43.052 51.118 45.514 48.732 48.562 48.732 C 48.562 48.732 48.562 48.714 48.562 48.711 L 70.219 48.711 L 70.219 28.589 L 58.519 28.589 L 58.519 24.466 Z" style="fill: rgb(255, 255, 255);"/>
  <path d="M 38.357 82.391 C 38.357 85.524 35.814 88.068 32.679 88.068 C 29.544 88.068 27.003 85.524 27.003 82.391 C 27.003 79.256 32.679 70.449 32.679 70.449 C 32.679 70.449 38.357 79.257 38.357 82.391 Z" style="fill: rgb(255, 255, 255);"/>
  <ellipse transform="matrix(-0.421111, 0.907009, -0.907009, -0.421111, 435.48839, -48.629542)" cx="250.976" cy="308.143" rx="44.273" ry="42.852" style="fill: none; stroke: rgb(250, 0, 0); stroke-width: 6;"/>
  <line x1="22.328" y1="15.243" x2="80.081" y2="78.149" style="stroke: rgb(250, 0, 0); stroke-width: 6;"/>
</svg>