<?xml version="1.0" encoding="utf-8"?>
<!-- Generator: Adobe Illustrator 16.0.0, SVG Export Plug-In . SVG Version: 6.00 Build 0)  -->
<!DOCTYPE svg PUBLIC "-//W3C//DTD SVG 1.1//EN" "http://www.w3.org/Graphics/SVG/1.1/DTD/svg11.dtd">
<svg version="1.1" id="Layer_1" xmlns="http://www.w3.org/2000/svg" xmlns:xlink="http://www.w3.org/1999/xlink" x="0px" y="0px"
	 width="600px" height="600px" viewBox="0 0 600 600" enable-background="new 0 0 600 600" xml:space="preserve">
<g>
	<g id="Logo">
		<g id="_x32_px_Stroke" display="none">
			<path display="inline" fill="#A9A9A9" d="M584.2,15.8v568.4H15.8V15.8H584.2 M590,10H10v580h580V10L590,10z"/>
		</g>
		<g>
			<path fill="#FF7977" d="M464.234,313.345c-0.112-10.161-2.491-20.194-6.195-29.619c-2.859-7.296-6.18-14.402-9.423-21.533
				c-25.798-56.233-52.882-111.861-81.208-166.866c-3.984-7.685-7.885-15.416-12.094-22.982c-4.135-7.38-8.949-14.486-15.183-20.263
				c-9.942-9.479-23.288-15.131-36.979-15.984h-6.304c-14.097,0.697-27.857,6.611-37.974,16.473
				c-6.002,5.687-10.648,12.621-14.674,19.794c-4.152,7.441-7.998,15.051-11.908,22.614
				c-19.013,36.899-37.455,74.092-55.342,111.545c-10.66,22.417-21.23,44.872-31.397,67.509c-4.217,9.431-8.03,19.184-9.466,29.479
				c-2.66,17.383,1.154,35.627,10.44,50.553c8.003,12.968,20.019,23.414,34.023,29.449c10.886,4.707,22.91,6.852,34.75,6.151
				c15.9-0.845,31.233-6.558,44.687-14.894c15.007-9.211,27.843-21.461,39.793-34.285c11.113,11.977,23.007,23.406,36.734,32.365
				c13.26,8.723,28.377,15.037,44.278,16.541c17.271,1.805,35.163-2.479,49.657-12.091c12.75-8.399,22.814-20.786,28.459-34.97
				C462.575,333.146,464.411,323.229,464.234,313.345z M299.853,306.641c-4.335-5.103-8.155-10.625-11.992-16.105
				c-6.456-9.468-12.325-19.366-17.046-29.823c-3.869-8.677-6.975-17.787-8.188-27.246c-0.883-7.506-0.672-15.335,2.083-22.461
				c2.465-6.682,7.203-12.471,13.206-16.295c14.303-9.231,34.691-8.233,47.65,2.963c6.561,5.589,10.479,13.852,11.465,22.342
				c1.289,11.287-1.277,22.622-5.217,33.15C324.372,272.699,312.591,290.21,299.853,306.641z M440.191,330.58
				c-3.823,13.191-13.012,24.718-25.029,31.368c-10.654,5.958-23.37,8-35.385,5.991c-15.299-2.379-29.021-10.494-40.916-20.078
				c-8.74-7.023-16.61-15.051-24.151-23.324c11.905-15.057,23.12-30.81,31.688-48.03c7.477-15.079,13.156-31.418,13.697-48.375
				c0.303-10.759-1.722-21.715-6.746-31.294c-6.58-12.797-18.367-22.628-31.883-27.385c-12.625-4.508-26.658-4.912-39.537-1.24
				c-12.145,3.437-23.238,10.735-30.839,20.854c-6.69,8.821-10.503,19.666-11.388,30.667c-1.361,15.843,2.61,31.646,8.617,46.21
				c8.928,21.28,22.033,40.541,36.507,58.412c-6.508,7.547-13.627,14.563-21.188,21.054c-11.75,9.942-25.195,18.601-40.426,21.896
				c-12.314,2.764-25.599,1.389-36.892-4.326c-13.227-6.593-23.383-19.006-27.213-33.275c-2.928-10.484-2.28-21.801,1.204-32.071
				c2.897-8.497,6.827-16.594,10.504-24.769c25.512-55.629,52.314-110.665,80.299-165.09c4.176-8.1,8.288-16.236,12.708-24.203
				c3.608-6.417,7.804-12.72,13.734-17.226c6.342-4.963,14.417-7.673,22.472-7.491c8.354-0.099,16.655,2.978,23.044,8.346
				c6.311,5.24,10.571,12.408,14.401,19.554c8.653,16.256,16.963,32.698,25.277,49.124c23.723,46.968,46.536,94.389,68.389,142.256
				c3.303,7.436,6.84,14.813,9.063,22.661C442.921,310.473,443.012,320.923,440.191,330.58z"/>
			<path fill="#FF7977" d="M176.022,433.511c7.145-1.616,14.951,3.095,16.808,10.188c2.306,7.262-2.277,15.698-9.572,17.797
				c-7.128,2.506-15.593-1.851-17.954-8.968c-2.24-5.998,0.156-13.232,5.475-16.781C172.348,434.65,174.163,433.921,176.022,433.511
				L176.022,433.511z"/>
			<path fill="#FF7977" d="M224.284,480.366c4.303-4.679,10.367-7.609,16.614-8.544c4.152-0.405,8.387-0.143,12.455,0.789
				c-0.052,6.586-0.011,13.164-0.022,19.752c-6.408-1.657-13.343-2-19.63,0.316c-3.397,1.237-6.517,3.273-8.99,5.907
				c-0.54,0.459-0.409,1.206-0.458,1.847c0.038,18.399-0.028,36.805,0.026,55.202c-0.063,0.707,0.106,1.503-0.207,2.169
				c-7.104,0.164-14.218,0.031-21.327,0.057c0.003-28.051-0.022-56.107,0.019-84.161c5.985,0.028,11.974-0.023,17.962,0.011
				c1.317-0.072,2.72,0.602,3.202,1.887C224.4,477.135,224.249,478.773,224.284,480.366L224.284,480.366z"/>
			<path fill="#FF7977" d="M377.484,480.439c5.687-5.885,13.928-8.778,22.017-8.797c8.547-0.211,17.304,2.313,23.907,7.856
				c4.367,3.418,7.582,8.235,9.033,13.594c1.881,6.556,1.711,13.443,1.688,20.198c0.006,14.859,0,29.723,0.006,44.584
				c-7.165-0.011-14.329,0.049-21.495-0.029c0.006-14.853,0-29.703,0.006-44.561c0-5.518,0.261-11.473-2.674-16.387
				c-2.045-3.528-6.089-5.284-9.99-5.692c-7.43-1.188-15.191,1.765-20.313,7.183c-0.544,0.545-1.011,1.234-0.952,2.06
				c-0.067,2.297,0.281,4.603,0.083,6.901c-0.281,3.123,0.155,6.248,0.055,9.379c-0.108,5.908-0.082,11.811-0.023,17.715
				c-0.404,7.812,0.305,15.646-0.164,23.447c-7.137-0.022-14.268-0.007-21.404-0.01c-0.002-28.064-0.051-56.128,0.025-84.188
				c5.52,0.041,11.048,0,16.564,0.017c1.428-0.091,2.987,0.708,3.355,2.158C377.547,477.357,377.443,478.911,377.484,480.439
				L377.484,480.439z"/>
			<path fill="#FF7977" d="M168.163,557.879c-0.002-28.063-0.044-56.125,0.015-84.186c7.111,0.018,14.218,0.012,21.326,0.007
				c0.056,28.063,0.014,56.122,0.02,84.176C182.406,557.876,175.286,557.871,168.163,557.879L168.163,557.879z"/>
			<path fill="#FF7977" d="M154.919,473.705c-5.636-0.012-11.27,0.018-16.91-0.033c-1.491-0.009-3.393,0.064-4.121,1.631
				c-0.653,1.608-0.403,3.396-0.462,5.09c-4.689-4.992-11.298-7.955-18.078-8.599c-10.47-0.94-21.318,1.963-29.725,8.317
				c-6.926,5.117-12.045,12.515-14.724,20.662c-1.29,3.82-1.937,7.828-2.349,11.832v5.764c0.601,12.063,5.966,23.992,15.324,31.768
				c7.059,5.98,16.13,9.32,25.32,9.903h4.791c7.285-0.49,14.477-3.503,19.447-8.933c0.047,1.701-0.194,3.506,0.443,5.135
				c0.664,1.32,2.23,1.683,3.591,1.631c5.814-0.014,11.637,0.006,17.458-0.025C154.925,529.809,154.942,501.754,154.919,473.705z
				 M132.769,531.654c-4.35,5.207-11.144,8.289-17.931,8.074c-7.272,0.054-14.821-2.732-19.534-8.438
				c-4.597-5.446-5.985-13.021-4.942-19.943c0.78-5.602,3.636-10.977,8.149-14.453c4.092-3.229,9.251-4.896,14.417-5.254
				c7.693-0.672,15.804,2.721,20.433,8.933c0.261,9.145,0.006,18.313,0.122,27.479C133.407,529.259,133.74,530.709,132.769,531.654z
				"/>
			<path fill="#FF7977" d="M344.979,497.783c-3.311-8.1-9.188-15.141-16.636-19.733c-7.669-4.774-16.866-6.933-25.862-6.321
				c-7.1,0.469-14.04,3.498-18.969,8.679c-0.028-15.722,0-31.433-0.015-47.153c-7.169,0.003-14.344-0.034-21.512,0.02
				c0.037,41.521-0.061,83.066,0.052,124.584c5.936,0.016,11.877,0.028,17.818,0.016c1.476,0.115,3.067-0.693,3.474-2.189
				c0.293-1.518,0.185-3.086,0.194-4.627c4.983,5.539,12.302,8.547,19.662,8.991h4.391c11.917-0.598,23.602-6.183,31.08-15.545
				C349.13,531.654,351.175,512.984,344.979,497.783z M319.909,533.203c-4.804,4.458-11.45,6.597-17.938,6.531
				c-6.771,0.154-13.538-2.955-17.827-8.196c-0.531-0.546-0.705-1.282-0.661-2.009c0.005-9.631,0.014-19.264,0-28.893
				c4.118-5.369,10.709-8.717,17.451-9.063c6.838-0.198,14.008,1.808,19.023,6.627c4.777,4.436,7.111,11.085,6.961,17.525
				C327.059,522.161,324.661,528.766,319.909,533.203z"/>
			<path fill="#FF7977" d="M521.858,487.367c-9.116-11.611-24.704-17.471-39.237-15.299c-6.069,0.957-11.821,3.869-16.063,8.334
				c-0.047-15.711,0-31.424-0.022-47.142c-7.157-0.009-14.308-0.015-21.462,0.005c-0.006,41.526,0,83.062,0,124.594
				c5.642,0.043,11.298-0.01,16.938,0.043c1.481,0.021,3.334-0.098,4.094-1.609c0.658-1.637,0.412-3.461,0.459-5.18
				c4.943,5.418,12.104,8.41,19.348,8.938h4.832c11.787-0.64,23.308-6.143,30.771-15.363c6.096-7.354,9.387-16.773,9.931-26.258
				v-5.631C530.771,503.641,527.679,494.547,521.858,487.367z M505.107,530.785c-5.676,7.304-15.689,10.021-24.571,8.604
				c-5.409-1.078-10.654-3.998-13.854-8.556c-0.355-3.537-0.033-7.114-0.142-10.665c0.077-6.533-0.161-13.087,0.108-19.609
				c3.254-4.484,8.461-7.363,13.819-8.553c9.917-1.832,21.449,2.096,26.462,11.255C511.496,511.739,511.043,523.064,505.107,530.785
				z"/>
		</g>
	</g>
	<g id="Guides">
	</g>
</g>
</svg>
