<?xml version="1.0" encoding="UTF-8" standalone="no"?>
<svg
   xmlns:dc="http://purl.org/dc/elements/1.1/"
   xmlns:cc="http://creativecommons.org/ns#"
   xmlns:rdf="http://www.w3.org/1999/02/22-rdf-syntax-ns#"
   xmlns:svg="http://www.w3.org/2000/svg"
   xmlns="http://www.w3.org/2000/svg"
   version="1.1"
   width="695"
   height="185"
   viewBox="-3.5 -3.5 695 185"
   id="Layer_1">
  <metadata
     id="metadata66">
    <rdf:RDF>
      <cc:Work
         rdf:about="">
        <dc:format>image/svg+xml</dc:format>
        <dc:type
           rdf:resource="http://purl.org/dc/dcmitype/StillImage" />
        <dc:title></dc:title>
      </cc:Work>
    </rdf:RDF>
  </metadata>
  <defs
     id="defs64" />
  <filter
     color-interpolation-filters="sRGB"
     id="googleDropShadow">
    <feOffset
       result="offOut"
       in="SourceGraphic"
       dx="0.3"
       dy="0.5"
       id="feOffset4" />
    <feGaussianBlur
       stdDeviation="0.25"
       result="blurOut"
       in="offOut"
       id="feGaussianBlur6" />
    <feColorMatrix
       type="matrix"
       result="blurTransOut"
       in="blurOut"
       values="1 0 0 0 0 0 1 0 0 0 0 0 1 0 0 0 0 0 .8 0"
       id="feColorMatrix8" />
    <feBlend
       in2="blurTransOut"
       mode="normal"
       in="SourceGraphic"
       id="feBlend10" />
  </filter>
  <g
     id="g12">
    <polygon
       points="186.407,57.715 229.733,114.75 229.733,57.715 238.394,57.715 238.394,128.516 229.236,128.516 185.914,70.98 185.914,128.516 177.248,128.516 177.248,57.715 "
       id="polygon14"
       style="fill:#cccccc" />
    <path
       d="m 308.698,125.743 c -5.708,2.182 -11.867,3.269 -18.468,3.269 -25.643,0 -38.47,-12.294 -38.47,-36.886 0,-23.271 12.378,-34.908 37.13,-34.908 7.102,0 13.705,0.993 19.807,2.976 v 7.921 c -6.103,-2.311 -12.378,-3.468 -18.817,-3.468 -19.306,0 -28.957,9.163 -28.957,27.479 0,19.638 9.5,29.462 28.518,29.462 3.033,0 6.399,-0.398 10.099,-1.193 v -24.06 h 9.158 l 0,29.408 0,0 z"
       id="path16"
       style="fill:#cccccc" />
    <path
       d="M 323.305,101.186 V 57.718 h 9.153 v 43.467 c 0,13.599 6.769,20.406 20.304,20.406 13.531,0 20.3,-6.808 20.3,-20.406 V 57.718 h 9.158 v 43.467 c 0,18.557 -9.819,27.83 -29.458,27.83 -19.638,0.001 -29.457,-9.273 -29.457,-27.829 z"
       id="path18"
       style="fill:#cccccc" />
    <polygon
       points="444.758,121.092 444.758,128.516 398.563,128.516 398.563,57.715 407.717,57.715 407.717,121.092 "
       id="polygon20"
       style="fill:#cccccc" />
    <polygon
       points="483.669,48.376 518.87,128.518 508.723,128.518 499.56,106.234 476.148,106.234 478.671,98.816 496.495,98.816 483.275,66.728 457.973,128.518 448.469,128.518 "
       id="polygon22"
       style="fill:#cccccc" />
    <path
       d="M 528.526,128.516 V 57.715 h 30.203 c 13.469,0 20.201,5.663 20.201,16.981 0,9.212 -6.581,16.029 -19.754,20.447 l 24.309,33.373 H 571.404 L 548.88,96.682 v -5.986 c 13.53,-2.151 20.295,-7.349 20.295,-15.598 0,-6.533 -3.762,-9.806 -11.283,-9.806 h -20.206 v 63.227 h -9.159 l -0.001,-0.003 0,0 z"
       id="path24"
       style="fill:#cccccc" />
    <path
       d="m 617.798,57.715 v 50.404 c 0,13.598 -8.005,20.396 -24.017,20.396 v -7.425 c 9.904,0 14.857,-4.329 14.857,-12.972 V 57.715 h 9.16 z"
       id="path26"
       style="fill:#cccccc" />
    <path
       d="m 634.137,126.04 v -8.418 c 7.429,2.64 15.447,3.965 24.063,3.965 12.18,0 18.272,-4.457 18.272,-13.376 0,-7.58 -4.493,-11.385 -13.47,-11.385 h -9.113 c -14.817,0 -22.233,-6.432 -22.233,-19.306 0,-13.531 9.495,-20.304 28.479,-20.304 8.249,0 15.922,0.998 23.021,2.976 v 8.417 c -7.101,-2.643 -14.772,-3.964 -23.021,-3.964 -12.875,0 -19.311,4.293 -19.311,12.875 0,7.588 4.354,11.385 13.065,11.385 h 9.113 c 15.08,0 22.628,6.441 22.628,19.306 0,13.868 -9.142,20.801 -27.432,20.801 -8.614,0 -16.632,-0.994 -24.061,-2.972 z"
       id="path28"
       style="fill:#cccccc" />
    <polygon
       points="188.723,55.402 232.045,112.438 232.045,55.402 240.711,55.402 240.711,126.203 231.552,126.203 188.227,68.667 188.227,126.203 179.565,126.203 179.565,55.402 "
       id="polygon30" />
    <path
       d="m 311.015,123.43 c -5.708,2.182 -11.864,3.268 -18.467,3.268 -25.645,0 -38.47,-12.293 -38.47,-36.885 0,-23.271 12.378,-34.909 37.135,-34.909 7.096,0 13.7,0.994 19.802,2.976 v 7.92 c -6.103,-2.311 -12.378,-3.468 -18.813,-3.468 -19.307,0 -28.96,9.163 -28.96,27.479 0,19.639 9.504,29.463 28.517,29.463 3.034,0 6.404,-0.396 10.103,-1.193 V 94.02 h 9.154 l -0.001,29.41 0,0 z"
       id="path32" />
    <path
       d="M 325.621,98.871 V 55.398 h 9.153 V 98.87 c 0,13.598 6.769,20.401 20.305,20.401 13.53,0 20.299,-6.804 20.299,-20.401 V 55.398 h 9.158 V 98.87 c 0,18.556 -9.819,27.825 -29.457,27.825 -19.639,0 -29.458,-9.267 -29.458,-27.824 z"
       id="path34" />
    <polygon
       points="447.071,118.775 447.071,126.199 400.88,126.199 400.88,55.398 410.034,55.398 410.034,118.775 "
       id="polygon36" />
    <polygon
       points="485.987,46.056 521.188,126.202 511.035,126.202 501.877,103.92 478.46,103.92 480.989,96.496 498.808,96.496 485.592,64.408 460.29,126.202 450.785,126.202 "
       id="polygon38" />
    <path
       d="M 530.843,126.203 V 55.402 h 30.202 c 13.47,0 20.196,5.659 20.196,16.982 0,9.207 -6.577,16.028 -19.749,20.445 l 24.31,33.374 H 573.716 L 551.195,94.368 v -5.992 c 13.531,-2.151 20.299,-7.344 20.299,-15.598 0,-6.533 -3.766,-9.801 -11.292,-9.801 h -20.2 v 63.226 c 0,0 -9.159,0 -9.159,0 z"
       id="path40" />
    <path
       d="m 620.115,55.398 v 50.405 c 0,13.602 -8.005,20.396 -24.016,20.396 v -7.424 c 9.903,0 14.856,-4.33 14.856,-12.973 V 55.398 h 9.16 z"
       id="path42"
       style="fill:#a6120d" />
    <path
       d="m 636.45,123.723 v -8.416 c 7.43,2.639 15.447,3.965 24.064,3.965 12.179,0 18.271,-4.459 18.271,-13.373 0,-7.584 -4.492,-11.385 -13.47,-11.385 h -9.113 c -14.817,0 -22.232,-6.436 -22.232,-19.311 0,-13.531 9.491,-20.303 28.478,-20.303 8.249,0 15.923,0.998 23.022,2.976 v 8.418 c -7.102,-2.644 -14.773,-3.965 -23.022,-3.965 -12.875,0 -19.311,4.293 -19.311,12.875 0,7.588 4.351,11.385 13.065,11.385 h 9.113 c 15.079,0 22.628,6.438 22.628,19.31 0,13.865 -9.141,20.797 -27.431,20.797 -8.614,-0.001 -16.633,-0.995 -24.062,-2.973 z"
       id="path44"
       style="fill:#a6120d" />
    <path
       d="m 551.851,163.994 -3.363,-10.225 h -2.391 l 4.641,12.92 c -0.108,0.281 -0.285,0.709 -0.525,1.287 -0.242,0.578 -0.384,0.896 -0.421,0.959 -0.125,0.188 -0.279,0.346 -0.464,0.475 -0.184,0.129 -0.47,0.193 -0.858,0.193 -0.125,0 -0.271,-0.013 -0.435,-0.035 -0.163,-0.023 -0.429,-0.086 -0.795,-0.188 v 1.923 c 0.234,0.063 0.433,0.104 0.591,0.129 0.16,0.022 0.39,0.034 0.687,0.034 1.218,0 2.076,-0.351 2.575,-1.054 0.5,-0.703 1.357,-2.654 2.576,-5.855 0.516,-1.359 1.155,-3.119 1.922,-5.275 1.022,-2.869 1.684,-4.706 1.979,-5.512 h -2.332 l -3.387,10.224 z m -12.487,0.861 c -1.521,0 -2.56,-0.69 -3.116,-2.074 -0.298,-0.733 -0.445,-1.69 -0.445,-2.87 0,-1.632 0.361,-2.804 1.088,-3.517 0.725,-0.709 1.569,-1.065 2.533,-1.065 1.104,0 1.941,0.435 2.511,1.301 0.569,0.867 0.853,1.961 0.853,3.281 0,1.485 -0.283,2.68 -0.853,3.586 -0.57,0.905 -1.427,1.358 -2.571,1.358 z m -5.497,1.465 h 1.945 v -1.604 c 0.446,0.603 0.866,1.04 1.259,1.313 0.658,0.461 1.466,0.691 2.423,0.691 1.71,0 3.047,-0.656 4.013,-1.97 0.965,-1.313 1.446,-2.96 1.446,-4.944 0,-2.094 -0.487,-3.678 -1.465,-4.752 -0.977,-1.074 -2.249,-1.611 -3.816,-1.611 -0.754,0 -1.451,0.158 -2.096,0.475 -0.643,0.316 -1.194,0.775 -1.658,1.377 v -6.246 h -2.051 l 0,17.271 0,0 z"
       id="path46" />
  </g>
  <g
     id="g48">
    <polygon
       points="13.621,138.311 83.331,176.625 153.4,137.792 166.462,29.46 83.243,0.875 0.554,29.975 "
       id="polygon50"
       style="fill:#b3b3b3" />
    <polygon
       points="83.05,167.471 146.041,132.609 158.214,35.721 83.05,10.089 "
       id="polygon52"
       style="fill:#a6120d" />
    <polygon
       points="83.049,167.471 83.049,10.086 9.833,36.183 21.03,133.072 "
       id="polygon54"
       style="fill:#dd1b16" />
    <path
       d="m 103.74,93.871 -20.69,9.675 H 61.243 L 50.992,129.186 31.925,129.539 83.05,15.804 103.74,93.871 z M 101.74,89 83.187,52.271 67.969,88.368 h 15.08 L 101.74,89 z"
       id="path56"
       style="fill:#f2f2f2" />
    <polygon
       points="100.454,88.396 83.088,88.396 83.049,103.523 107.062,103.546 118.285,129.543 136.529,129.881 83.049,15.804 83.186,52.271 "
       id="polygon58"
       style="fill:#b3b3b3" />
  </g>
  <g
     id="g34">
    <path
       d="m 616.84147,157.24456 c 0,5.56645 -4.35464,9.66826 -9.69877,9.66826 -5.34413,0 -9.69877,-4.10181 -9.69877,-9.66826 0,-5.60566 4.35464,-9.66824 9.69877,-9.66824 5.34413,0 9.69877,4.06258 9.69877,9.66824 z m -4.24566,0 c 0,-3.47847 -2.52386,-5.85849 -5.45311,-5.85849 -2.92925,0 -5.4531,2.38002 -5.4531,5.85849 0,3.44362 2.52385,5.8585 5.4531,5.8585 2.92925,0 5.45311,-2.41924 5.45311,-5.8585 z"
       id="path36" />
    <path
       d="m 637.76466,157.24456 c 0,5.56645 -4.35465,9.66826 -9.69878,9.66826 -5.34413,0 -9.69876,-4.10181 -9.69876,-9.66826 0,-5.60131 4.35463,-9.66824 9.69876,-9.66824 5.34413,0 9.69878,4.06258 9.69878,9.66824 z m -4.24567,0 c 0,-3.47847 -2.52385,-5.85849 -5.45311,-5.85849 -2.92924,0 -5.4531,2.38002 -5.4531,5.85849 0,3.44362 2.52386,5.8585 5.4531,5.8585 2.92926,0 5.45311,-2.41924 5.45311,-5.8585 z"
       id="path38" />
    <path
       d="m 657.81604,148.16042 v 17.35752 c 0,7.14004 -4.21079,10.05621 -9.18876,10.05621 -4.68592,0 -7.5062,-3.13412 -8.56979,-5.69721 l 3.69642,-1.53873 c 0.65822,1.57361 2.27105,3.43053 4.86901,3.43053 3.18642,0 5.16105,-1.9659 5.16105,-5.66669 v -1.39052 h -0.14821 c -0.95026,1.17257 -2.78104,2.19694 -5.0913,2.19694 -4.83413,0 -9.26288,-4.2108 -9.26288,-9.62903 0,-5.45747 4.42875,-9.70312 9.26288,-9.70312 2.3059,0 4.13668,1.02435 5.0913,2.16206 h 0.14821 v -1.5736 h 4.03207 z m -3.7313,9.11902 c 0,-3.40437 -2.27104,-5.89337 -5.16105,-5.89337 -2.92925,0 -5.38336,2.489 -5.38336,5.89337 0,3.36951 2.45411,5.82362 5.38336,5.82362 2.89001,0 5.16105,-2.45411 5.16105,-5.82362 z"
       id="path41" />
    <path
       d="M 664.46351,137.98652 V 166.32 h -4.14104 v -28.33348 h 4.14104 z"
       id="path43" />
    <path
       d="m 680.60052,160.42664 3.29541,2.19693 c -1.0636,1.5736 -3.62669,4.2849 -8.05543,4.2849 -5.49234,0 -9.59416,-4.24567 -9.59416,-9.66826 0,-5.74952 4.13669,-9.66825 9.11902,-9.66825 5.01721,0 7.47132,3.99283 8.27338,6.15054 l 0.44026,1.09846 -12.92443,5.35285 c 0.98949,1.93976 2.52822,2.92925 4.68593,2.92925 2.16206,0 3.66155,-1.0636 4.76002,-2.67642 z m -10.14338,-3.47849 8.63953,-3.58745 c -0.47514,-1.20745 -1.90489,-2.04873 -3.58746,-2.04873 -2.1577,0 -5.16105,1.90489 -5.05207,5.63618 z"
       id="path45" />
    <path
       d="m 581.76898,154.72942 v -4.10181 h 13.82238 c 0.13513,0.71488 0.20487,1.56052 0.20487,2.47591 0,3.07745 -0.84129,6.88286 -3.55258,9.59415 -2.6372,2.74617 -6.0067,4.2108 -10.47031,4.2108 -8.27338,0 -15.23034,-6.73902 -15.23034,-15.01239 0,-8.27338 6.95696,-15.01239 15.23034,-15.01239 4.57694,0 7.83747,1.79591 10.28723,4.13669 l -2.89437,2.89438 c -1.75668,-1.64771 -4.13669,-2.92925 -7.39722,-2.92925 -6.04157,0 -10.76672,4.869 -10.76672,10.91057 0,6.04157 4.72515,10.91057 10.76672,10.91057 3.91874,0 6.15054,-1.5736 7.58029,-3.00335 1.1595,-1.15949 1.92232,-2.81592 2.22309,-5.07823 l -9.80338,0.004 z"
       id="path47" />
  </g>
</svg>
