<svg id="Layer_x5F_1_x5F_1" xmlns="http://www.w3.org/2000/svg" width="2293.6" height="626.7" viewBox="0 0 2293.6 626.7"><style>.st0{fill:#54585a}.st0,.st1{fill-rule:evenodd;clip-rule:evenodd}.st1{fill:#ff8f1c}</style><path class="st0" d="M463.4 622.2h-62.5V250.1h62.5v45.8c22.1-31.4 59-49.7 102.3-49.7 8 0 17.3.7 22.3 1.5l4.6.6v66.5l-6.6-1.6c-8.6-2.1-20.5-3.3-33.4-3.3-52.4 0-89.1 38.7-89.1 94v218.3zM1188 621.5c61.5 0 105.9-19.1 144-61.9l3.3-3.7-39.9-41.1-3.8 4c-28.2 30-54.2 47.3-103.5 47.3-69.3 0-114.6-44.5-119.3-116.7h280.9l.3-5c.7-10.4.7-21.9.7-22.3 0-50.7-15.7-97.1-44.2-130.6-30.1-35.4-71.6-54.1-119.8-54.1-106.4 0-180.6 81.1-180.6 197.1v2.8c-.1 110.2 73 184.2 181.9 184.2zm-115.6-227.4c6.2-54.4 56.2-97.7 114.2-97.7 53.8 0 98 43.4 100.7 97.7h-214.9zM653.4 250.1h62.5v372.1h-62.5zM929.8 626.7c-19.1 0-47.2-2-69.7-19-24.4-18.5-36.8-50.8-36.8-96.2V163.7h62.5v86.1H967v58.9h-81.2v202.8c0 46.8 16.6 56.2 43.3 56.2 9.8 0 19 0 31.8-2.1l6.2-1V622l-4.1 1c-12.9 3.1-21.9 3.7-33.2 3.7zM1581.2 626.7c51.3 0 99.1-19.6 134.5-55.1 36.1-36.1 56-85.7 56-139.6 0-53.8-19.9-103.4-56-139.5-35.5-35.5-83.3-55.1-134.5-55.1-51.3 0-99 19.6-134.5 55.1-36.1 36.1-56 85.7-56 139.5s19.9 103.4 56 139.5c35.5 35.6 83.3 55.2 134.5 55.2zm0-330.3c35.7 0 68.2 13.7 91.7 38.7 23.4 24.9 36.3 59.4 36.3 97s-12.9 72.1-36.3 97c-23.5 24.9-56.1 38.7-91.7 38.7s-68.2-13.7-91.7-38.7c-23.5-24.9-36.4-59.4-36.4-97s12.9-72.1 36.4-97c23.5-25 56.1-38.7 91.7-38.7zM191.8 626.7c-51.7 0-99.9-19.6-135.5-55.1C20 535.5 0 485.9 0 432.1s20-103.4 56.3-139.5c35.7-35.5 83.8-55.1 135.5-55.1 54.4 0 101.6 19 136.5 54.9l3.4 3.5-38.3 45.1-4.1-4.3c-25.1-26.4-58.8-40.4-97.5-40.4-36 0-68.9 13.8-92.6 38.7-23.7 24.9-36.7 59.4-36.7 97s13 72.1 36.7 97c23.7 25 56.6 38.7 92.6 38.7 38.7 0 72.5-14 97.5-40.4l4.1-4.3 38.2 45.3-3.4 3.5c-34.7 35.9-81.9 54.9-136.4 54.9z"/><path class="st1" d="M684.6 96.1c-26.3 0-47.8-21.6-47.8-48s21.4-48 47.8-48c26.3 0 47.7 21.6 47.7 48s-21.4 48-47.7 48zM2245.9 626.7c-26.3 0-47.7-21.6-47.7-48.1s21.4-48 47.7-48c26.3 0 47.7 21.5 47.7 48s-21.4 48.1-47.7 48.1zM2110 556h-127c-32.8 0-59.4-26.6-59.4-59.4V122.8c0-53.7-43.6-97.3-97.3-97.3h-1005v43.2h999.6c32.8 0 59.4 26.6 59.4 59.4v373.7c0 53.7 43.6 97.3 97.3 97.3H2110V556z"/></svg>