<?xml version="1.0" encoding="UTF-8" standalone="no"?>
<svg width="250px" height="275px" viewBox="0 0 250 275" version="1.1" xmlns="http://www.w3.org/2000/svg" xmlns:xlink="http://www.w3.org/1999/xlink" xmlns:sketch="http://www.bohemiancoding.com/sketch/ns">
    <title>Artboard 1</title>
    <description>Created with Sketch (http://www.bohemiancoding.com/sketch)</description>
    <defs></defs>
    <g id="Page-1" stroke="none" stroke-width="1" fill="none" fill-rule="evenodd" sketch:type="MSPage">
        <g id="Artboard-1" sketch:type="MSArtboardGroup">
            <g id="mailpile-logo" sketch:type="MSLayerGroup" transform="translate(17.000000, 26.000000)">
                <g id="Group-+-Group-+-Shape" transform="translate(4.000000, 0.000000)" sketch:type="MSShapeGroup">
                    <g id="Group" fill="#3A6B8C">
                        <path d="M123.923,49.091 L116.854,5.882 L94.574,33.58 L82.652,44.792 L98.989,60.829 L119.805,76.097 L117.812,78.893 L103.622,70.954 L79.354,47.565 L66.256,63.882 L47.133,53.595 L41.543,65.49 L20.359,94.426 L16.271,91.781 L37.204,62.999 L44.495,49.865 L25.063,40.816 L1.333,24.222 L3.589,54.56 L11.402,99.957 L51.764,101.823 L97.661,92.417 L122.112,89.221 L126.948,81.828 L123.923,49.091 Z" id="Shape"></path>
                        <path d="M48.056,45.083 L64.788,56.487 L74.787,44.272 L91.267,28.757 L116.153,-0.179 L63.683,6.572 L27.716,12.12 L0.471,18.179 L27.273,35.751 L48.056,45.083 Z" id="Shape"></path>
                    </g>
                    <g id="Group" transform="translate(74.000000, 85.000000)" fill="#A31304">
                        <path d="M78.143,37.186 L82.864,9.604 L63.646,21.701 L54.101,25.992 L60.632,39.079 L70.027,52.639 L68.244,53.913 L61.324,46.161 L51.525,26.977 L40.218,34.107 L30.812,23.909 L24.952,29.932 L6.128,43.004 L4.213,40.555 L22.853,27.523 L29.989,21.105 L20.139,11.594 L11.328,13.802 L4.299,15.426 L-0.43,44.479 L23.57,54.014 L53.252,57.885 L68.688,61.045 L73.151,57.589 L78.143,37.186 Z" id="Shape"></path>
                        <path d="M33.134,18.963 L40.874,29.336 L49.455,24.034 L62.644,18.096 L83.706,5.797 L55.373,0.116 L50.671,7.218 L35.447,8.924 L27.747,9.611 L24.075,10.552 L33.134,18.963 Z" id="Shape"></path>
                    </g>
                    <path d="M196.993,5.927 L167,11.267 L136.924,17.526 L125.84,19.285 L131.164,48.019 L136.65,73.375 L156.857,68.768 L188.174,63.28 L207.246,59.038 L203.146,41.322 L196.993,5.927 L196.993,5.927 Z M179.344,51.994 L179.643,53.716 L169.061,55.352 L146.445,59.492 L146.124,57.612 L145.665,55.692 L154.615,53.722 L154.739,53.701 L169.02,51.543 L179.126,50.149 L179.344,51.994 L179.344,51.994 Z M144.288,49.247 L144.285,47.785 L155.92,45.423 L167.321,43.418 L172.719,42.257 L177.365,41.398 L177.772,44.522 L172.1,45.813 L155.906,48.584 L144.879,50.855 L144.288,49.247 L144.288,49.247 Z M175.994,34.647 L176.381,36.406 L165.155,38.577 L153.002,40.434 L143.106,42.198 L142.215,38.913 L165.403,34.653 L175.839,32.937 L175.994,34.647 L175.994,34.647 Z M195.173,21.229 L185.731,22.708 L184.407,18.213 L183.796,12.798 L188.131,12.255 L193.561,11.138 L194.855,16.197 L195.173,21.229 L195.173,21.229 Z" id="Shape" fill="#4B7945"></path>
                </g>
                <g id="Group" transform="translate(0.000000, 173.000000)" fill="#000000" sketch:type="MSShapeGroup">
                    <path d="M3.70763384,19.7051681 C3.70763384,18.7857737 3.22901531,18.356393 2.39188555,18.356393 L0,18.356393 L0,11.7356393 L6.99640103,11.7356393 C9.68764949,11.7356393 11.0033978,13.0237814 11.0033978,15.2300806 L11.0033978,16.1494751 C11.0033978,16.8232439 10.9436459,17.4976315 10.9436459,17.4976315 L11.0631497,17.4976315 C12.4984017,14.4319522 16.1462837,11 20.9306583,11 C25.5351738,11 28.5251816,13.2062992 29.8409299,17.4369985 L29.9604337,17.4369985 C31.5749413,14.0650606 35.5221862,11 40.3657092,11 C46.7036325,11 50.3527216,14.6788152 50.3527216,22.8921135 L50.3527216,35.0917229 C50.3527216,35.9498656 50.830133,36.4404981 51.6684699,36.4404981 L54,36.4404981 L54,43 L46.8237398,43 C43.9526322,43 42.7575947,41.7749657 42.7575947,38.8324085 L42.7575947,24.3652482 C42.7575947,20.8089364 42.099117,18.1132422 38.5713423,18.1132422 C34.8045602,18.1132422 32.1127082,21.3614393 31.2755784,25.28588 C30.9164636,26.5102956 30.7969599,27.7990565 30.7969599,29.2690977 L30.7969599,43 L23.2024366,43 L23.2024366,24.3652482 C23.2024366,20.9926916 22.7244216,18.1132422 19.0765396,18.1132422 C15.249402,18.1132422 12.6776573,21.3614393 11.7204203,25.3452756 C11.4216609,26.5715473 11.2424053,27.8584521 11.2424053,29.2690977 L11.2424053,43 L3.70763384,43 L3.70763384,19.7051681 L3.70763384,19.7051681 Z" id="Shape"></path>
                    <path d="M75.8911609,23.1047081 L76.8359067,23.1047081 L76.8359067,22.8652025 C76.8359067,18.4918067 75.1234432,16.8733297 71.2842588,16.8733297 C69.9276396,16.8733297 67.2698344,17.232588 67.2698344,18.9103366 L67.2698344,20.5282088 L60.3019619,20.5282088 L60.3019619,17.2930692 C60.3019619,11.5993687 68.2151762,11 71.3450563,11 C81.3837995,11 84.3372475,16.3332325 84.3372475,23.1651893 L84.3372475,34.5507759 C84.3372475,35.390255 84.8099184,35.8686613 85.6366455,35.8686613 L88,35.8686613 L88,42.2814833 L81.2675689,42.2814833 C78.4911489,42.2814833 77.4283845,40.7234875 77.4283845,38.9259861 C77.4283845,38.147593 77.4879899,37.6074959 77.4879899,37.6074959 L77.3705672,37.6074959 C77.3705672,37.6074959 75.0674142,43 68.2759737,43 C62.9007578,43 58.000001,39.5852312 58.000001,33.4717912 C57.9958286,23.8831012 70.989212,23.1047081 75.8911609,23.1047081 L75.8911609,23.1047081 Z M70.3891852,37 C74.2640937,37 77,32.5609874 77,28.7393168 L77,28 L75.7459471,28 C71.9843636,28 66,28.5551099 66,32.9325128 C66,35.0272438 67.4254785,37 70.3891852,37 L70.3891852,37 Z" id="Shape"></path>
                    <path d="M94.7201792,19.9021412 C94.7201792,18.9905209 94.2400194,18.5647708 93.3995883,18.5647708 L91,18.5647708 L91,12 L98.2581036,12 C101.078513,12 102.27861,13.2772501 102.27861,16.1329652 L102.27861,35.1585926 C102.27861,36.0094791 102.75877,36.495963 103.598595,36.495963 L106,36.495963 L106,43 L98.7394744,43 C95.9214871,43 94.7201792,41.7853242 94.7201792,38.8676482 L94.7201792,19.9021412 L94.7201792,19.9021412 Z M95,0 L102,0 L102,7 L95,7 L95,0 L95,0 Z" id="Shape"></path>
                    <path d="M111.720174,7.87335996 C111.720174,6.96444868 111.239937,6.54086057 110.399976,6.54086057 L108,6.54086057 L108,0 L115.259881,0 C118.08014,0 119.33978,1.27198681 119.33978,4.11852336 L119.33978,35.1871526 C119.33978,36.0355513 119.820017,36.5190408 120.659373,36.5190408 L123,36.5190408 L123,43 L115.799467,43 C112.91986,43 111.720174,41.7903595 111.720174,38.8833104 L111.720174,7.87335996 L111.720174,7.87335996 Z" id="Shape"></path>
                    <path d="M129.92405,17.5938907 C129.92405,16.7508011 129.433389,16.2694691 128.573959,16.2694691 L126,16.2694691 L126,12.7210875 L130.230326,12.7210875 C132.866778,12.7210875 133.908117,13.8039326 133.908117,15.9083184 C133.908117,17.1119518 133.846862,17.9538275 133.846862,17.9538275 L133.968135,17.9538275 C133.968135,17.9538275 136.420202,12 144.575196,12 C152.850845,12 158,18.4946431 158,27.8766709 C158,37.4395777 152.1758,43.6938582 144.206427,43.6938582 C136.665223,43.6938582 134.090645,37.9810002 134.090645,37.9810002 L133.968135,37.9810002 C133.968135,37.9810002 134.090645,39.0644524 134.090645,40.6262016 L134.090645,55 L129.922812,55 L129.92405,17.5938907 L129.92405,17.5938907 Z M143.937,40 C149.464034,40 154,35.5548024 154,27.9700942 C154,20.6814534 149.961761,16 144.123805,16 C138.906441,16 134,19.5552011 134,28.0293077 C134,34.015252 137.416392,40 143.937,40 L143.937,40 Z" id="Shape"></path>
                    <path d="M165.918645,16.9934389 C165.918645,16.1294769 165.429278,15.6362287 164.571031,15.6362287 L162,15.6362287 L162,12 L166.346841,12 C168.980279,12 170.080737,13.1096531 170.080737,15.7593852 L170.080737,38.0078051 C170.080737,38.9314794 170.57134,39.3637713 171.428969,39.3637713 L174,39.3637713 L174,43 L169.652541,43 C167.021575,43 165.918645,41.8903469 165.918645,39.2412368 L165.918645,16.9934389 L165.918645,16.9934389 L165.918645,16.9934389 Z M166,0 L170,0 L170,5 L166,5 L166,0 L166,0 Z" id="Shape"></path>
                    <path d="M180.918632,4.95536509 C180.918632,4.0991185 180.429189,3.60957016 179.571429,3.60957016 L177,3.60957016 L177,0 L181.346277,0 C183.979504,0 185.081986,1.10194677 185.081986,3.73180291 L185.081986,38.0452522 C185.081986,38.9619979 185.570811,39.3910472 186.429189,39.3910472 L189,39.3910472 L189,43 L184.653723,43 C182.020496,43 180.918632,41.8986706 180.918632,39.2694318 L180.918632,4.95536509 L180.918632,4.95536509 Z" id="Shape"></path>
                    <path d="M207.58824,12 C215.764589,12 220,18.4974433 220,26.0875993 C220,26.815666 219.881855,28.1522934 219.881855,28.1522934 L197.176635,28.1522934 C197.293593,35.8631811 202.529971,40.2953174 208.646203,40.2953174 C214.059501,40.2953174 217.529047,36.5299627 217.529047,36.5299627 L219.470425,39.6273102 C219.470425,39.6273102 215.177426,44 208.47225,44 C199.70577,44 193,37.4418845 193,28.0291104 C193,18.0114526 199.646994,12 207.58824,12 L207.58824,12 Z M216,24 C215.759532,17.9603412 211.899872,15 207.436911,15 C202.429702,15 198.027619,18.1361683 197,24 L216,24 L216,24 Z" id="Shape"></path>
                </g>
            </g>
        </g>
    </g>
</svg>